<svg width="447" height="255" viewBox="0 0 447 255" fill="none" xmlns="http://www.w3.org/2000/svg">
<rect width="446.565" height="254.953" fill="#0A0A0A"/>
<path d="M242.781 68.4884H203.785V107.485H242.781V68.4884Z" stroke="white" stroke-width="3.59965"/>
<path d="M203.785 87.9864H242.781" stroke="white" stroke-width="3.59965"/>
<path d="M223.283 68.4884V80.4872" stroke="white" stroke-width="3.59965"/>
<path d="M223.283 95.4857V107.484" stroke="white" stroke-width="3.59965"/>
<path d="M175.918 145.64C175.918 146.454 175.723 147.18 175.332 147.818C174.948 148.456 174.395 148.954 173.672 149.312C172.956 149.67 172.126 149.849 171.182 149.849H168.438V154.869H166.572V141.695H171.065C172.614 141.695 173.809 142.043 174.648 142.74C175.495 143.43 175.918 144.397 175.918 145.64ZM174.043 145.669C174.043 144.016 172.975 143.189 170.84 143.189H168.438V148.374H170.918C171.888 148.374 172.65 148.137 173.203 147.661C173.763 147.186 174.043 146.522 174.043 145.669ZM179.647 149.956C179.647 151.141 179.907 152.069 180.428 152.74C180.955 153.41 181.675 153.745 182.586 153.745C183.257 153.745 183.843 153.602 184.344 153.316C184.852 153.023 185.19 152.626 185.359 152.124L186.902 152.564C186.616 153.371 186.089 153.99 185.32 154.419C184.559 154.849 183.647 155.064 182.586 155.064C181.05 155.064 179.868 154.585 179.041 153.628C178.214 152.671 177.801 151.301 177.801 149.517C177.801 147.779 178.204 146.444 179.012 145.513C179.826 144.576 180.997 144.107 182.527 144.107C184.057 144.107 185.216 144.572 186.004 145.503C186.792 146.434 187.186 147.841 187.186 149.722V149.956H179.647ZM182.547 145.406C181.675 145.406 180.984 145.692 180.477 146.265C179.969 146.831 179.699 147.613 179.666 148.609H185.369C185.187 146.473 184.246 145.406 182.547 145.406ZM198.219 145.904C197.49 145.78 196.8 145.718 196.148 145.718C195.1 145.718 194.254 146.112 193.609 146.9C192.965 147.688 192.643 148.69 192.643 149.908V154.869H190.885V148.023C190.885 147.528 190.839 146.945 190.748 146.275C190.663 145.604 190.54 144.947 190.377 144.302H192.047C192.307 145.201 192.464 146.014 192.516 146.744H192.565C192.89 146.014 193.209 145.481 193.522 145.142C193.834 144.797 194.205 144.54 194.635 144.37C195.065 144.195 195.589 144.107 196.207 144.107C196.884 144.107 197.555 144.162 198.219 144.273V145.904ZM204.711 154.869V148.169C204.711 147.167 204.63 146.467 204.467 146.07C204.311 145.666 204.021 145.464 203.598 145.464C203.181 145.464 202.843 145.777 202.582 146.402C202.328 147.027 202.201 147.873 202.201 148.941V154.869H200.551V146.558C200.551 145.328 200.531 144.576 200.492 144.302H201.947L202.006 145.542V146.011H202.025C202.247 145.347 202.527 144.865 202.865 144.566C203.204 144.26 203.627 144.107 204.135 144.107C204.708 144.107 205.134 144.263 205.414 144.576C205.701 144.888 205.906 145.37 206.029 146.021H206.049C206.309 145.331 206.619 144.839 206.977 144.546C207.341 144.253 207.8 144.107 208.354 144.107C209.122 144.107 209.672 144.387 210.004 144.947C210.336 145.507 210.502 146.467 210.502 147.828V154.869H208.861V148.169C208.861 147.167 208.78 146.467 208.617 146.07C208.461 145.666 208.171 145.464 207.748 145.464C207.318 145.464 206.977 145.738 206.723 146.285C206.475 146.831 206.352 147.652 206.352 148.745V154.869H204.711ZM218.313 153.482H222.023V154.869H212.434V153.482H216.555V145.689H213.44V144.302H218.313V153.482ZM216.359 142.251V140.376H218.313V142.251H216.359ZM232.9 151.851C232.9 152.854 232.52 153.641 231.758 154.214C231.003 154.781 229.954 155.064 228.613 155.064C227.272 155.064 226.25 154.856 225.547 154.439C224.85 154.016 224.395 153.352 224.18 152.447L225.732 152.144C225.856 152.704 226.12 153.114 226.523 153.374C226.934 153.628 227.63 153.755 228.613 153.755C230.371 153.755 231.25 153.199 231.25 152.085C231.25 151.669 231.091 151.333 230.772 151.079C230.453 150.819 229.964 150.607 229.307 150.445C227.588 150.022 226.497 149.689 226.035 149.449C225.573 149.208 225.218 148.908 224.971 148.55C224.723 148.186 224.6 147.733 224.6 147.193C224.6 146.236 224.945 145.487 225.635 144.947C226.325 144.406 227.324 144.136 228.633 144.136C229.779 144.136 230.693 144.354 231.377 144.79C232.061 145.22 232.487 145.848 232.656 146.675L231.074 146.87C231.003 146.402 230.772 146.047 230.381 145.806C229.99 145.565 229.408 145.445 228.633 145.445C227.038 145.445 226.24 145.936 226.24 146.919C226.24 147.31 226.374 147.622 226.641 147.857C226.914 148.091 227.35 148.28 227.949 148.423L229.111 148.726C230.173 148.986 230.934 149.244 231.397 149.497C231.865 149.751 232.233 150.07 232.5 150.454C232.767 150.832 232.9 151.298 232.9 151.851ZM244.412 151.851C244.412 152.854 244.031 153.641 243.27 154.214C242.514 154.781 241.466 155.064 240.125 155.064C238.784 155.064 237.762 154.856 237.059 154.439C236.362 154.016 235.906 153.352 235.691 152.447L237.244 152.144C237.368 152.704 237.632 153.114 238.035 153.374C238.445 153.628 239.142 153.755 240.125 153.755C241.883 153.755 242.762 153.199 242.762 152.085C242.762 151.669 242.602 151.333 242.283 151.079C241.964 150.819 241.476 150.607 240.818 150.445C239.1 150.022 238.009 149.689 237.547 149.449C237.085 149.208 236.73 148.908 236.482 148.55C236.235 148.186 236.111 147.733 236.111 147.193C236.111 146.236 236.456 145.487 237.147 144.947C237.837 144.406 238.836 144.136 240.145 144.136C241.29 144.136 242.205 144.354 242.889 144.79C243.572 145.22 243.999 145.848 244.168 146.675L242.586 146.87C242.514 146.402 242.283 146.047 241.893 145.806C241.502 145.565 240.919 145.445 240.145 145.445C238.55 145.445 237.752 145.936 237.752 146.919C237.752 147.31 237.885 147.622 238.152 147.857C238.426 148.091 238.862 148.28 239.461 148.423L240.623 148.726C241.684 148.986 242.446 149.244 242.908 149.497C243.377 149.751 243.745 150.07 244.012 150.454C244.279 150.832 244.412 151.298 244.412 151.851ZM252.848 153.482H256.559V154.869H246.969V153.482H251.09V145.689H247.975V144.302H252.848V153.482ZM250.895 142.251V140.376H252.848V142.251H250.895ZM267.797 149.576C267.797 151.353 267.387 152.714 266.566 153.658C265.753 154.595 264.574 155.064 263.031 155.064C261.521 155.064 260.362 154.589 259.555 153.638C258.754 152.688 258.354 151.333 258.354 149.576C258.354 147.759 258.764 146.395 259.584 145.484C260.411 144.566 261.579 144.107 263.09 144.107C264.678 144.107 265.86 144.559 266.635 145.464C267.41 146.369 267.797 147.74 267.797 149.576ZM265.951 149.576C265.951 148.176 265.727 147.131 265.277 146.441C264.835 145.751 264.115 145.406 263.119 145.406C262.11 145.406 261.371 145.757 260.902 146.46C260.434 147.163 260.199 148.202 260.199 149.576C260.199 150.943 260.434 151.984 260.902 152.701C261.371 153.41 262.074 153.765 263.012 153.765C264.047 153.765 264.796 153.417 265.258 152.72C265.72 152.023 265.951 150.975 265.951 149.576ZM277.072 154.869V148.081C277.072 147.196 276.9 146.538 276.555 146.109C276.216 145.679 275.673 145.464 274.924 145.464C274.117 145.464 273.453 145.76 272.932 146.353C272.417 146.939 272.16 147.736 272.16 148.745V154.869H270.402V146.558C270.402 145.328 270.383 144.576 270.344 144.302H272.004C272.01 144.335 272.017 144.423 272.023 144.566C272.03 144.709 272.037 144.875 272.043 145.064C272.056 145.246 272.069 145.594 272.082 146.109H272.111C272.795 144.774 273.921 144.107 275.49 144.107C276.617 144.107 277.456 144.413 278.01 145.025C278.563 145.63 278.84 146.564 278.84 147.828V154.869H277.072Z" fill="#E5E5E5"/>
<path d="M188.425 173.131C188.425 173.945 188.23 174.671 187.839 175.309C187.455 175.947 186.902 176.445 186.179 176.803C185.463 177.161 184.633 177.34 183.689 177.34H180.945V182.36H179.079V169.186H183.572C185.121 169.186 186.316 169.534 187.156 170.231C188.002 170.921 188.425 171.888 188.425 173.131ZM186.55 173.16C186.55 171.507 185.482 170.68 183.347 170.68H180.945V175.866H183.425C184.395 175.866 185.157 175.628 185.71 175.153C186.27 174.677 186.55 174.013 186.55 173.16ZM199.214 173.395C198.485 173.271 197.795 173.209 197.144 173.209C196.096 173.209 195.249 173.603 194.605 174.391C193.96 175.179 193.638 176.181 193.638 177.399V182.36H191.88V175.514C191.88 175.019 191.835 174.437 191.743 173.766C191.659 173.095 191.535 172.438 191.372 171.793H193.042C193.303 172.692 193.459 173.506 193.511 174.235H193.56C193.885 173.506 194.204 172.972 194.517 172.633C194.829 172.288 195.201 172.031 195.63 171.862C196.06 171.686 196.584 171.598 197.202 171.598C197.88 171.598 198.55 171.653 199.214 171.764V173.395ZM211.234 177.067C211.234 178.844 210.824 180.205 210.003 181.149C209.189 182.086 208.011 182.555 206.468 182.555C204.958 182.555 203.799 182.08 202.992 181.129C202.191 180.179 201.79 178.825 201.79 177.067C201.79 175.25 202.201 173.886 203.021 172.975C203.848 172.057 205.016 171.598 206.527 171.598C208.115 171.598 209.297 172.05 210.072 172.955C210.846 173.86 211.234 175.231 211.234 177.067ZM209.388 177.067C209.388 175.667 209.163 174.622 208.714 173.932C208.271 173.242 207.552 172.897 206.556 172.897C205.547 172.897 204.808 173.248 204.339 173.951C203.87 174.655 203.636 175.693 203.636 177.067C203.636 178.434 203.87 179.476 204.339 180.192C204.808 180.901 205.511 181.256 206.449 181.256C207.484 181.256 208.232 180.908 208.695 180.211C209.157 179.515 209.388 178.466 209.388 177.067ZM213.888 173.18V171.793H215.548L216.115 169.039H217.286V171.793H221.505V173.18H217.286V179.547C217.286 180.062 217.423 180.442 217.697 180.69C217.977 180.937 218.432 181.061 219.064 181.061C219.936 181.061 220.903 180.95 221.964 180.729V182.067C220.864 182.366 219.773 182.516 218.693 182.516C217.638 182.516 216.847 182.295 216.32 181.852C215.792 181.403 215.529 180.696 215.529 179.733V173.18H213.888ZM234.257 177.067C234.257 178.844 233.847 180.205 233.027 181.149C232.213 182.086 231.034 182.555 229.492 182.555C227.981 182.555 226.822 182.08 226.015 181.129C225.214 180.179 224.814 178.825 224.814 177.067C224.814 175.25 225.224 173.886 226.044 172.975C226.871 172.057 228.04 171.598 229.55 171.598C231.139 171.598 232.32 172.05 233.095 172.955C233.87 173.86 234.257 175.231 234.257 177.067ZM232.411 177.067C232.411 175.667 232.187 174.622 231.738 173.932C231.295 173.242 230.576 172.897 229.579 172.897C228.57 172.897 227.831 173.248 227.363 173.951C226.894 174.655 226.659 175.693 226.659 177.067C226.659 178.434 226.894 179.476 227.363 180.192C227.831 180.901 228.534 181.256 229.472 181.256C230.507 181.256 231.256 180.908 231.718 180.211C232.18 179.515 232.411 178.466 232.411 177.067ZM236.326 177.067C236.326 175.309 236.745 173.958 237.585 173.014C238.425 172.07 239.639 171.598 241.228 171.598C242.413 171.598 243.389 171.884 244.158 172.457C244.926 173.024 245.401 173.789 245.583 174.752L243.708 174.889C243.604 174.297 243.344 173.831 242.927 173.492C242.51 173.147 241.918 172.975 241.15 172.975C240.121 172.975 239.366 173.294 238.884 173.932C238.409 174.57 238.171 175.602 238.171 177.028C238.171 178.473 238.409 179.531 238.884 180.201C239.366 180.866 240.118 181.198 241.14 181.198C241.843 181.198 242.426 181.025 242.888 180.68C243.35 180.335 243.637 179.808 243.747 179.098L245.603 179.215C245.518 179.84 245.281 180.41 244.89 180.924C244.506 181.432 243.995 181.832 243.357 182.125C242.719 182.412 242.006 182.555 241.218 182.555C239.623 182.555 238.409 182.086 237.576 181.149C236.742 180.211 236.326 178.851 236.326 177.067ZM257.281 177.067C257.281 178.844 256.87 180.205 256.05 181.149C255.236 182.086 254.058 182.555 252.515 182.555C251.005 182.555 249.846 182.08 249.038 181.129C248.238 180.179 247.837 178.825 247.837 177.067C247.837 175.25 248.247 173.886 249.068 172.975C249.895 172.057 251.063 171.598 252.574 171.598C254.162 171.598 255.344 172.05 256.118 172.955C256.893 173.86 257.281 175.231 257.281 177.067ZM255.435 177.067C255.435 175.667 255.21 174.622 254.761 173.932C254.318 173.242 253.599 172.897 252.603 172.897C251.594 172.897 250.855 173.248 250.386 173.951C249.917 174.655 249.683 175.693 249.683 177.067C249.683 178.434 249.917 179.476 250.386 180.192C250.855 180.901 251.558 181.256 252.495 181.256C253.531 181.256 254.279 180.908 254.742 180.211C255.204 179.515 255.435 178.466 255.435 177.067ZM265.267 180.973H268.978V182.36H259.388V180.973H263.509V169.254H260.687V167.867H265.267V180.973Z" fill="#E5E5E5"/>
</svg>
