<svg width="447" height="255" viewBox="0 0 447 255" fill="none" xmlns="http://www.w3.org/2000/svg">
<rect width="446.551" height="254.953" fill="#0A0A0A"/>
<path d="M126.556 114.482H100.567V140.471H126.556V114.482Z" stroke="white" stroke-width="2.99878"/>
<path d="M100.567 127.476H126.556" stroke="white" stroke-width="2.99878"/>
<path d="M113.561 114.482V122.478" stroke="white" stroke-width="2.99878"/>
<path d="M113.561 132.474V140.471" stroke="white" stroke-width="2.99878"/>
<path d="M160.471 123.139C160.471 123.952 160.275 124.678 159.885 125.316C159.501 125.954 158.947 126.452 158.225 126.81C157.509 127.168 156.678 127.348 155.734 127.348H152.99V132.367H151.125V119.193H155.617C157.167 119.193 158.361 119.542 159.201 120.238C160.048 120.928 160.471 121.895 160.471 123.139ZM158.596 123.168C158.596 121.514 157.528 120.687 155.393 120.687H152.99V125.873H155.471C156.441 125.873 157.203 125.635 157.756 125.16C158.316 124.685 158.596 124.021 158.596 123.168ZM164.199 127.455C164.199 128.64 164.46 129.568 164.981 130.238C165.508 130.909 166.227 131.244 167.139 131.244C167.809 131.244 168.395 131.101 168.897 130.814C169.404 130.521 169.743 130.124 169.912 129.623L171.455 130.062C171.169 130.87 170.641 131.488 169.873 131.918C169.111 132.348 168.2 132.562 167.139 132.562C165.602 132.562 164.421 132.084 163.594 131.127C162.767 130.17 162.354 128.799 162.354 127.016C162.354 125.277 162.757 123.943 163.565 123.012C164.378 122.074 165.55 121.605 167.08 121.605C168.61 121.605 169.769 122.071 170.557 123.002C171.344 123.933 171.738 125.339 171.738 127.221V127.455H164.199ZM167.1 122.904C166.227 122.904 165.537 123.191 165.029 123.764C164.522 124.33 164.251 125.111 164.219 126.107H169.922C169.74 123.972 168.799 122.904 167.1 122.904ZM182.772 123.402C182.042 123.279 181.352 123.217 180.701 123.217C179.653 123.217 178.807 123.611 178.162 124.398C177.518 125.186 177.195 126.189 177.195 127.406V132.367H175.438V125.521C175.438 125.027 175.392 124.444 175.301 123.773C175.216 123.103 175.093 122.445 174.93 121.801H176.6C176.86 122.699 177.016 123.513 177.068 124.242H177.117C177.443 123.513 177.762 122.979 178.074 122.641C178.387 122.295 178.758 122.038 179.188 121.869C179.617 121.693 180.141 121.605 180.76 121.605C181.437 121.605 182.107 121.661 182.772 121.771V123.402ZM189.264 132.367V125.668C189.264 124.665 189.182 123.965 189.02 123.568C188.863 123.165 188.574 122.963 188.15 122.963C187.734 122.963 187.395 123.275 187.135 123.9C186.881 124.525 186.754 125.372 186.754 126.439V132.367H185.104V124.057C185.104 122.826 185.084 122.074 185.045 121.801H186.5L186.559 123.041V123.51H186.578C186.8 122.846 187.079 122.364 187.418 122.064C187.757 121.758 188.18 121.605 188.688 121.605C189.26 121.605 189.687 121.762 189.967 122.074C190.253 122.387 190.458 122.868 190.582 123.519H190.602C190.862 122.829 191.171 122.338 191.529 122.045C191.894 121.752 192.353 121.605 192.906 121.605C193.675 121.605 194.225 121.885 194.557 122.445C194.889 123.005 195.055 123.965 195.055 125.326V132.367H193.414V125.668C193.414 124.665 193.333 123.965 193.17 123.568C193.014 123.165 192.724 122.963 192.301 122.963C191.871 122.963 191.529 123.236 191.275 123.783C191.028 124.33 190.904 125.15 190.904 126.244V132.367H189.264ZM202.865 130.98H206.576V132.367H196.986V130.98H201.107V123.187H197.992V121.801H202.865V130.98ZM200.912 119.75V117.875H202.865V119.75H200.912ZM217.453 129.349C217.453 130.352 217.072 131.14 216.311 131.713C215.555 132.279 214.507 132.562 213.166 132.562C211.825 132.562 210.803 132.354 210.1 131.937C209.403 131.514 208.947 130.85 208.732 129.945L210.285 129.642C210.409 130.202 210.673 130.613 211.076 130.873C211.486 131.127 212.183 131.254 213.166 131.254C214.924 131.254 215.803 130.697 215.803 129.584C215.803 129.167 215.643 128.832 215.324 128.578C215.005 128.318 214.517 128.106 213.859 127.943C212.141 127.52 211.05 127.188 210.588 126.947C210.126 126.706 209.771 126.407 209.523 126.049C209.276 125.684 209.152 125.232 209.152 124.691C209.152 123.734 209.497 122.986 210.188 122.445C210.878 121.905 211.877 121.635 213.186 121.635C214.331 121.635 215.246 121.853 215.93 122.289C216.613 122.719 217.04 123.347 217.209 124.174L215.627 124.369C215.555 123.9 215.324 123.545 214.934 123.305C214.543 123.064 213.96 122.943 213.186 122.943C211.591 122.943 210.793 123.435 210.793 124.418C210.793 124.808 210.926 125.121 211.193 125.355C211.467 125.59 211.903 125.779 212.502 125.922L213.664 126.224C214.725 126.485 215.487 126.742 215.949 126.996C216.418 127.25 216.786 127.569 217.053 127.953C217.32 128.331 217.453 128.796 217.453 129.349ZM228.965 129.349C228.965 130.352 228.584 131.14 227.822 131.713C227.067 132.279 226.019 132.562 224.678 132.562C223.337 132.562 222.315 132.354 221.611 131.937C220.915 131.514 220.459 130.85 220.244 129.945L221.797 129.642C221.921 130.202 222.184 130.613 222.588 130.873C222.998 131.127 223.695 131.254 224.678 131.254C226.436 131.254 227.315 130.697 227.315 129.584C227.315 129.167 227.155 128.832 226.836 128.578C226.517 128.318 226.029 128.106 225.371 127.943C223.652 127.52 222.562 127.188 222.1 126.947C221.637 126.706 221.283 126.407 221.035 126.049C220.788 125.684 220.664 125.232 220.664 124.691C220.664 123.734 221.009 122.986 221.699 122.445C222.389 121.905 223.389 121.635 224.697 121.635C225.843 121.635 226.758 121.853 227.441 122.289C228.125 122.719 228.551 123.347 228.721 124.174L227.139 124.369C227.067 123.9 226.836 123.545 226.445 123.305C226.055 123.064 225.472 122.943 224.697 122.943C223.102 122.943 222.305 123.435 222.305 124.418C222.305 124.808 222.438 125.121 222.705 125.355C222.979 125.59 223.415 125.779 224.014 125.922L225.176 126.224C226.237 126.485 226.999 126.742 227.461 126.996C227.93 127.25 228.298 127.569 228.565 127.953C228.831 128.331 228.965 128.796 228.965 129.349ZM237.4 130.98H241.111V132.367H231.522V130.98H235.643V123.187H232.527V121.801H237.4V130.98ZM235.447 119.75V117.875H237.4V119.75H235.447ZM252.35 127.074C252.35 128.851 251.94 130.212 251.119 131.156C250.305 132.094 249.127 132.562 247.584 132.562C246.074 132.562 244.915 132.087 244.107 131.137C243.307 130.186 242.906 128.832 242.906 127.074C242.906 125.258 243.316 123.894 244.137 122.982C244.964 122.064 246.132 121.605 247.643 121.605C249.231 121.605 250.413 122.058 251.188 122.963C251.962 123.868 252.35 125.238 252.35 127.074ZM250.504 127.074C250.504 125.674 250.279 124.629 249.83 123.939C249.387 123.249 248.668 122.904 247.672 122.904C246.663 122.904 245.924 123.256 245.455 123.959C244.986 124.662 244.752 125.7 244.752 127.074C244.752 128.441 244.986 129.483 245.455 130.199C245.924 130.909 246.627 131.264 247.565 131.264C248.6 131.264 249.348 130.915 249.811 130.219C250.273 129.522 250.504 128.474 250.504 127.074ZM261.625 132.367V125.58C261.625 124.695 261.453 124.037 261.107 123.607C260.769 123.178 260.225 122.963 259.477 122.963C258.669 122.963 258.005 123.259 257.484 123.851C256.97 124.437 256.713 125.235 256.713 126.244V132.367H254.955V124.057C254.955 122.826 254.936 122.074 254.897 121.801H256.557C256.563 121.833 256.57 121.921 256.576 122.064C256.583 122.208 256.589 122.374 256.596 122.562C256.609 122.745 256.622 123.093 256.635 123.607H256.664C257.348 122.273 258.474 121.605 260.043 121.605C261.169 121.605 262.009 121.911 262.563 122.523C263.116 123.129 263.393 124.063 263.393 125.326V132.367H261.625ZM287.1 123.139C287.1 123.952 286.904 124.678 286.514 125.316C286.13 125.954 285.576 126.452 284.854 126.81C284.137 127.168 283.307 127.348 282.363 127.348H279.619V132.367H277.754V119.193H282.246C283.796 119.193 284.99 119.542 285.83 120.238C286.676 120.928 287.1 121.895 287.1 123.139ZM285.225 123.168C285.225 121.514 284.157 120.687 282.022 120.687H279.619V125.873H282.1C283.07 125.873 283.831 125.635 284.385 125.16C284.945 124.685 285.225 124.021 285.225 123.168ZM297.889 123.402C297.16 123.279 296.469 123.217 295.818 123.217C294.77 123.217 293.924 123.611 293.279 124.398C292.635 125.186 292.313 126.189 292.313 127.406V132.367H290.555V125.521C290.555 125.027 290.509 124.444 290.418 123.773C290.333 123.103 290.21 122.445 290.047 121.801H291.717C291.977 122.699 292.134 123.513 292.186 124.242H292.234C292.56 123.513 292.879 122.979 293.191 122.641C293.504 122.295 293.875 122.038 294.305 121.869C294.734 121.693 295.259 121.605 295.877 121.605C296.554 121.605 297.225 121.661 297.889 121.771V123.402ZM309.908 127.074C309.908 128.851 309.498 130.212 308.678 131.156C307.864 132.094 306.686 132.562 305.143 132.562C303.632 132.562 302.473 132.087 301.666 131.137C300.865 130.186 300.465 128.832 300.465 127.074C300.465 125.258 300.875 123.894 301.695 122.982C302.522 122.064 303.691 121.605 305.201 121.605C306.79 121.605 307.971 122.058 308.746 122.963C309.521 123.868 309.908 125.238 309.908 127.074ZM308.063 127.074C308.063 125.674 307.838 124.629 307.389 123.939C306.946 123.249 306.227 122.904 305.231 122.904C304.221 122.904 303.482 123.256 303.014 123.959C302.545 124.662 302.311 125.7 302.311 127.074C302.311 128.441 302.545 129.483 303.014 130.199C303.482 130.909 304.186 131.264 305.123 131.264C306.158 131.264 306.907 130.915 307.369 130.219C307.831 129.522 308.063 128.474 308.063 127.074ZM312.563 123.187V121.801H314.223L314.789 119.047H315.961V121.801H320.18V123.187H315.961V129.555C315.961 130.069 316.098 130.45 316.371 130.697C316.651 130.945 317.107 131.068 317.738 131.068C318.611 131.068 319.578 130.958 320.639 130.736V132.074C319.538 132.374 318.448 132.523 317.367 132.523C316.313 132.523 315.522 132.302 314.994 131.859C314.467 131.41 314.203 130.704 314.203 129.74V123.187H312.563ZM332.932 127.074C332.932 128.851 332.522 130.212 331.701 131.156C330.887 132.094 329.709 132.562 328.166 132.562C326.656 132.562 325.497 132.087 324.69 131.137C323.889 130.186 323.488 128.832 323.488 127.074C323.488 125.258 323.898 123.894 324.719 122.982C325.546 122.064 326.714 121.605 328.225 121.605C329.813 121.605 330.995 122.058 331.77 122.963C332.544 123.868 332.932 125.238 332.932 127.074ZM331.086 127.074C331.086 125.674 330.861 124.629 330.412 123.939C329.969 123.249 329.25 122.904 328.254 122.904C327.245 122.904 326.506 123.256 326.037 123.959C325.568 124.662 325.334 125.7 325.334 127.074C325.334 128.441 325.568 129.483 326.037 130.199C326.506 130.909 327.209 131.264 328.147 131.264C329.182 131.264 329.93 130.915 330.393 130.219C330.855 129.522 331.086 128.474 331.086 127.074ZM335 127.074C335 125.316 335.42 123.965 336.26 123.021C337.1 122.077 338.314 121.605 339.902 121.605C341.087 121.605 342.064 121.892 342.832 122.465C343.6 123.031 344.076 123.796 344.258 124.76L342.383 124.896C342.279 124.304 342.018 123.838 341.602 123.5C341.185 123.155 340.593 122.982 339.824 122.982C338.796 122.982 338.04 123.301 337.559 123.939C337.083 124.577 336.846 125.609 336.846 127.035C336.846 128.48 337.083 129.538 337.559 130.209C338.04 130.873 338.792 131.205 339.815 131.205C340.518 131.205 341.1 131.032 341.563 130.687C342.025 130.342 342.311 129.815 342.422 129.105L344.277 129.223C344.193 129.848 343.955 130.417 343.565 130.932C343.18 131.439 342.669 131.84 342.031 132.133C341.393 132.419 340.68 132.562 339.893 132.562C338.298 132.562 337.083 132.094 336.25 131.156C335.417 130.219 335 128.858 335 127.074ZM355.955 127.074C355.955 128.851 355.545 130.212 354.725 131.156C353.911 132.094 352.732 132.562 351.19 132.562C349.679 132.562 348.52 132.087 347.713 131.137C346.912 130.186 346.512 128.832 346.512 127.074C346.512 125.258 346.922 123.894 347.742 122.982C348.569 122.064 349.738 121.605 351.248 121.605C352.837 121.605 354.018 122.058 354.793 122.963C355.568 123.868 355.955 125.238 355.955 127.074ZM354.109 127.074C354.109 125.674 353.885 124.629 353.436 123.939C352.993 123.249 352.273 122.904 351.277 122.904C350.268 122.904 349.529 123.256 349.061 123.959C348.592 124.662 348.357 125.7 348.357 127.074C348.357 128.441 348.592 129.483 349.061 130.199C349.529 130.909 350.232 131.264 351.17 131.264C352.205 131.264 352.954 130.915 353.416 130.219C353.878 129.522 354.109 128.474 354.109 127.074ZM363.941 130.98H367.652V132.367H358.063V130.98H362.184V119.262H359.361V117.875H363.941V130.98Z" fill="#E5E5E5"/>
</svg>
